<mxfile host="app.diagrams.net" modified="2022-03-31T18:54:38.312Z" agent="5.0 (X11; Linux x86_64) AppleWebKit/537.36 (KHTML, like Gecko) Chrome/99.0.4844.84 Safari/537.36" etag="hITwRhrzvurzbe3Rc76F" version="17.2.2" type="github">
  <diagram id="kLvLH0YnfWJ-6zQmONw3" name="Page-1">
    <mxGraphModel dx="1595" dy="971" grid="1" gridSize="10" guides="1" tooltips="1" connect="1" arrows="1" fold="1" page="1" pageScale="1" pageWidth="1920" pageHeight="1200" math="0" shadow="0">
      <root>
        <mxCell id="0" />
        <mxCell id="1" parent="0" />
        <mxCell id="I0gpD1vLXrpBhUwmVyEY-1" value="Region" style="points=[[0,0],[0.25,0],[0.5,0],[0.75,0],[1,0],[1,0.25],[1,0.5],[1,0.75],[1,1],[0.75,1],[0.5,1],[0.25,1],[0,1],[0,0.75],[0,0.5],[0,0.25]];outlineConnect=0;gradientColor=none;html=1;whiteSpace=wrap;fontSize=12;fontStyle=0;container=1;pointerEvents=0;collapsible=0;recursiveResize=0;shape=mxgraph.aws4.group;grIcon=mxgraph.aws4.group_region;strokeColor=#147EBA;fillColor=none;verticalAlign=top;align=left;spacingLeft=30;fontColor=#147EBA;dashed=1;" vertex="1" parent="1">
          <mxGeometry x="320" y="70" width="1000" height="870" as="geometry" />
        </mxCell>
        <mxCell id="I0gpD1vLXrpBhUwmVyEY-3" value="VPC" style="points=[[0,0],[0.25,0],[0.5,0],[0.75,0],[1,0],[1,0.25],[1,0.5],[1,0.75],[1,1],[0.75,1],[0.5,1],[0.25,1],[0,1],[0,0.75],[0,0.5],[0,0.25]];outlineConnect=0;gradientColor=none;html=1;whiteSpace=wrap;fontSize=12;fontStyle=0;container=1;pointerEvents=0;collapsible=0;recursiveResize=0;shape=mxgraph.aws4.group;grIcon=mxgraph.aws4.group_vpc;strokeColor=#248814;fillColor=none;verticalAlign=top;align=left;spacingLeft=30;fontColor=#AAB7B8;dashed=0;" vertex="1" parent="I0gpD1vLXrpBhUwmVyEY-1">
          <mxGeometry x="80" y="35" width="800" height="795" as="geometry" />
        </mxCell>
        <mxCell id="I0gpD1vLXrpBhUwmVyEY-5" value="Availability Zone" style="fillColor=none;strokeColor=#147EBA;dashed=1;verticalAlign=top;fontStyle=0;fontColor=#147EBA;" vertex="1" parent="I0gpD1vLXrpBhUwmVyEY-3">
          <mxGeometry x="40" y="80" width="300" height="680" as="geometry" />
        </mxCell>
        <mxCell id="I0gpD1vLXrpBhUwmVyEY-6" value="Availability Zone" style="fillColor=none;strokeColor=#147EBA;dashed=1;verticalAlign=top;fontStyle=0;fontColor=#147EBA;" vertex="1" parent="I0gpD1vLXrpBhUwmVyEY-3">
          <mxGeometry x="470" y="80" width="280" height="680" as="geometry" />
        </mxCell>
        <mxCell id="I0gpD1vLXrpBhUwmVyEY-17" value="" style="edgeStyle=orthogonalEdgeStyle;rounded=0;orthogonalLoop=1;jettySize=auto;html=1;entryX=0;entryY=0.5;entryDx=0;entryDy=0;entryPerimeter=0;" edge="1" parent="I0gpD1vLXrpBhUwmVyEY-3" source="I0gpD1vLXrpBhUwmVyEY-7" target="I0gpD1vLXrpBhUwmVyEY-15">
          <mxGeometry relative="1" as="geometry">
            <mxPoint x="240" y="-60" as="targetPoint" />
            <Array as="points">
              <mxPoint x="180" y="15" />
            </Array>
          </mxGeometry>
        </mxCell>
        <mxCell id="I0gpD1vLXrpBhUwmVyEY-7" value="Public subnet" style="points=[[0,0],[0.25,0],[0.5,0],[0.75,0],[1,0],[1,0.25],[1,0.5],[1,0.75],[1,1],[0.75,1],[0.5,1],[0.25,1],[0,1],[0,0.75],[0,0.5],[0,0.25]];outlineConnect=0;gradientColor=none;html=1;whiteSpace=wrap;fontSize=12;fontStyle=0;container=1;pointerEvents=0;collapsible=0;recursiveResize=0;shape=mxgraph.aws4.group;grIcon=mxgraph.aws4.group_security_group;grStroke=0;strokeColor=#248814;fillColor=#E9F3E6;verticalAlign=top;align=left;spacingLeft=30;fontColor=#248814;dashed=0;" vertex="1" parent="I0gpD1vLXrpBhUwmVyEY-3">
          <mxGeometry x="80" y="120" width="220" height="190" as="geometry" />
        </mxCell>
        <mxCell id="I0gpD1vLXrpBhUwmVyEY-19" value="" style="edgeStyle=orthogonalEdgeStyle;rounded=0;orthogonalLoop=1;jettySize=auto;html=1;entryX=1;entryY=0.5;entryDx=0;entryDy=0;entryPerimeter=0;" edge="1" parent="I0gpD1vLXrpBhUwmVyEY-3" source="I0gpD1vLXrpBhUwmVyEY-9" target="I0gpD1vLXrpBhUwmVyEY-15">
          <mxGeometry relative="1" as="geometry">
            <mxPoint x="759.9999999999995" y="30" as="targetPoint" />
            <Array as="points">
              <mxPoint x="610" y="15" />
            </Array>
          </mxGeometry>
        </mxCell>
        <mxCell id="I0gpD1vLXrpBhUwmVyEY-9" value="Public subnet" style="points=[[0,0],[0.25,0],[0.5,0],[0.75,0],[1,0],[1,0.25],[1,0.5],[1,0.75],[1,1],[0.75,1],[0.5,1],[0.25,1],[0,1],[0,0.75],[0,0.5],[0,0.25]];outlineConnect=0;gradientColor=none;html=1;whiteSpace=wrap;fontSize=12;fontStyle=0;container=1;pointerEvents=0;collapsible=0;recursiveResize=0;shape=mxgraph.aws4.group;grIcon=mxgraph.aws4.group_security_group;grStroke=0;strokeColor=#248814;fillColor=#E9F3E6;verticalAlign=top;align=left;spacingLeft=30;fontColor=#248814;dashed=0;" vertex="1" parent="I0gpD1vLXrpBhUwmVyEY-3">
          <mxGeometry x="500" y="120" width="220" height="190" as="geometry" />
        </mxCell>
        <mxCell id="I0gpD1vLXrpBhUwmVyEY-29" value="" style="outlineConnect=0;dashed=0;verticalLabelPosition=bottom;verticalAlign=top;align=center;html=1;shape=mxgraph.aws3.vpc_nat_gateway;fillColor=#F58534;gradientColor=none;aspect=fixed;" vertex="1" parent="I0gpD1vLXrpBhUwmVyEY-9">
          <mxGeometry x="30" y="70" width="38.33" height="40" as="geometry" />
        </mxCell>
        <mxCell id="I0gpD1vLXrpBhUwmVyEY-10" value="Private subnet" style="points=[[0,0],[0.25,0],[0.5,0],[0.75,0],[1,0],[1,0.25],[1,0.5],[1,0.75],[1,1],[0.75,1],[0.5,1],[0.25,1],[0,1],[0,0.75],[0,0.5],[0,0.25]];outlineConnect=0;gradientColor=none;html=1;whiteSpace=wrap;fontSize=12;fontStyle=0;container=1;pointerEvents=0;collapsible=0;recursiveResize=0;shape=mxgraph.aws4.group;grIcon=mxgraph.aws4.group_security_group;grStroke=0;strokeColor=#147EBA;fillColor=#E6F2F8;verticalAlign=top;align=left;spacingLeft=30;fontColor=#147EBA;dashed=0;" vertex="1" parent="I0gpD1vLXrpBhUwmVyEY-3">
          <mxGeometry x="80" y="330" width="220" height="190" as="geometry" />
        </mxCell>
        <mxCell id="I0gpD1vLXrpBhUwmVyEY-12" value="Private subnet" style="points=[[0,0],[0.25,0],[0.5,0],[0.75,0],[1,0],[1,0.25],[1,0.5],[1,0.75],[1,1],[0.75,1],[0.5,1],[0.25,1],[0,1],[0,0.75],[0,0.5],[0,0.25]];outlineConnect=0;gradientColor=none;html=1;whiteSpace=wrap;fontSize=12;fontStyle=0;container=1;pointerEvents=0;collapsible=0;recursiveResize=0;shape=mxgraph.aws4.group;grIcon=mxgraph.aws4.group_security_group;grStroke=0;strokeColor=#147EBA;fillColor=#E6F2F8;verticalAlign=top;align=left;spacingLeft=30;fontColor=#147EBA;dashed=0;" vertex="1" parent="I0gpD1vLXrpBhUwmVyEY-3">
          <mxGeometry x="500" y="330" width="220" height="190" as="geometry" />
        </mxCell>
        <mxCell id="I0gpD1vLXrpBhUwmVyEY-13" value="Private subnet" style="points=[[0,0],[0.25,0],[0.5,0],[0.75,0],[1,0],[1,0.25],[1,0.5],[1,0.75],[1,1],[0.75,1],[0.5,1],[0.25,1],[0,1],[0,0.75],[0,0.5],[0,0.25]];outlineConnect=0;gradientColor=none;html=1;whiteSpace=wrap;fontSize=12;fontStyle=0;container=1;pointerEvents=0;collapsible=0;recursiveResize=0;shape=mxgraph.aws4.group;grIcon=mxgraph.aws4.group_security_group;grStroke=0;strokeColor=#147EBA;fillColor=#E6F2F8;verticalAlign=top;align=left;spacingLeft=30;fontColor=#147EBA;dashed=0;" vertex="1" parent="I0gpD1vLXrpBhUwmVyEY-3">
          <mxGeometry x="80" y="540" width="220" height="190" as="geometry" />
        </mxCell>
        <mxCell id="I0gpD1vLXrpBhUwmVyEY-14" value="Private subnet" style="points=[[0,0],[0.25,0],[0.5,0],[0.75,0],[1,0],[1,0.25],[1,0.5],[1,0.75],[1,1],[0.75,1],[0.5,1],[0.25,1],[0,1],[0,0.75],[0,0.5],[0,0.25]];outlineConnect=0;gradientColor=none;html=1;whiteSpace=wrap;fontSize=12;fontStyle=0;container=1;pointerEvents=0;collapsible=0;recursiveResize=0;shape=mxgraph.aws4.group;grIcon=mxgraph.aws4.group_security_group;grStroke=0;strokeColor=#147EBA;fillColor=#E6F2F8;verticalAlign=top;align=left;spacingLeft=30;fontColor=#147EBA;dashed=0;" vertex="1" parent="I0gpD1vLXrpBhUwmVyEY-3">
          <mxGeometry x="500" y="540" width="220" height="190" as="geometry" />
        </mxCell>
        <mxCell id="I0gpD1vLXrpBhUwmVyEY-15" value="" style="outlineConnect=0;dashed=0;verticalLabelPosition=bottom;verticalAlign=top;align=center;html=1;shape=mxgraph.aws3.internet_gateway;fillColor=#F58534;gradientColor=none;aspect=fixed;" vertex="1" parent="I0gpD1vLXrpBhUwmVyEY-3">
          <mxGeometry x="380" y="-10" width="47.92" height="50" as="geometry" />
        </mxCell>
        <mxCell id="I0gpD1vLXrpBhUwmVyEY-21" value="" style="rounded=1;whiteSpace=wrap;html=1;fillColor=none;" vertex="1" parent="I0gpD1vLXrpBhUwmVyEY-3">
          <mxGeometry x="110" y="390" width="580" height="90" as="geometry" />
        </mxCell>
        <mxCell id="I0gpD1vLXrpBhUwmVyEY-22" value="" style="sketch=0;outlineConnect=0;fontColor=#232F3E;gradientColor=none;fillColor=#D45B07;strokeColor=none;dashed=0;verticalLabelPosition=bottom;verticalAlign=top;align=center;html=1;fontSize=12;fontStyle=0;aspect=fixed;pointerEvents=1;shape=mxgraph.aws4.container_2;" vertex="1" parent="I0gpD1vLXrpBhUwmVyEY-3">
          <mxGeometry x="180" y="418.23" width="51.94" height="33.54" as="geometry" />
        </mxCell>
        <mxCell id="I0gpD1vLXrpBhUwmVyEY-23" value="" style="sketch=0;outlineConnect=0;fontColor=#232F3E;gradientColor=none;fillColor=#D45B07;strokeColor=none;dashed=0;verticalLabelPosition=bottom;verticalAlign=top;align=center;html=1;fontSize=12;fontStyle=0;aspect=fixed;pointerEvents=1;shape=mxgraph.aws4.container_2;" vertex="1" parent="I0gpD1vLXrpBhUwmVyEY-3">
          <mxGeometry x="579.03" y="410" width="54.2" height="35" as="geometry" />
        </mxCell>
        <mxCell id="I0gpD1vLXrpBhUwmVyEY-20" value="" style="outlineConnect=0;dashed=0;verticalLabelPosition=bottom;verticalAlign=top;align=center;html=1;shape=mxgraph.aws3.emr_cluster;fillColor=#F58534;gradientColor=none;aspect=fixed;" vertex="1" parent="I0gpD1vLXrpBhUwmVyEY-3">
          <mxGeometry x="100" y="370" width="35.24" height="40" as="geometry" />
        </mxCell>
        <mxCell id="I0gpD1vLXrpBhUwmVyEY-24" value="" style="outlineConnect=0;dashed=0;verticalLabelPosition=bottom;verticalAlign=top;align=center;html=1;shape=mxgraph.aws3.vpc_nat_gateway;fillColor=#F58534;gradientColor=none;aspect=fixed;" vertex="1" parent="I0gpD1vLXrpBhUwmVyEY-3">
          <mxGeometry x="210" y="200" width="38.33" height="40" as="geometry" />
        </mxCell>
        <mxCell id="I0gpD1vLXrpBhUwmVyEY-26" value="" style="outlineConnect=0;dashed=0;verticalLabelPosition=bottom;verticalAlign=top;align=center;html=1;shape=mxgraph.aws3.application_load_balancer;fillColor=#F58534;gradientColor=none;aspect=fixed;" vertex="1" parent="I0gpD1vLXrpBhUwmVyEY-3">
          <mxGeometry x="380" y="120" width="47.92" height="50" as="geometry" />
        </mxCell>
        <mxCell id="I0gpD1vLXrpBhUwmVyEY-28" value="" style="endArrow=classic;html=1;rounded=0;exitX=0.855;exitY=0.855;exitDx=0;exitDy=0;exitPerimeter=0;" edge="1" parent="I0gpD1vLXrpBhUwmVyEY-3" source="I0gpD1vLXrpBhUwmVyEY-26" target="I0gpD1vLXrpBhUwmVyEY-23">
          <mxGeometry width="50" height="50" relative="1" as="geometry">
            <mxPoint x="489.58749999999986" y="195.29999999999995" as="sourcePoint" />
            <mxPoint x="265.3832134246202" y="485.11506778273133" as="targetPoint" />
          </mxGeometry>
        </mxCell>
        <mxCell id="I0gpD1vLXrpBhUwmVyEY-30" value="" style="outlineConnect=0;dashed=0;verticalLabelPosition=bottom;verticalAlign=top;align=center;html=1;shape=mxgraph.aws3.route_table;fillColor=#F58536;gradientColor=none;aspect=fixed;" vertex="1" parent="I0gpD1vLXrpBhUwmVyEY-3">
          <mxGeometry x="270" y="120" width="30" height="27.6" as="geometry" />
        </mxCell>
        <mxCell id="I0gpD1vLXrpBhUwmVyEY-27" value="" style="endArrow=classic;html=1;rounded=0;exitX=0.145;exitY=0.855;exitDx=0;exitDy=0;exitPerimeter=0;" edge="1" parent="I0gpD1vLXrpBhUwmVyEY-3" source="I0gpD1vLXrpBhUwmVyEY-26" target="I0gpD1vLXrpBhUwmVyEY-22">
          <mxGeometry width="50" height="50" relative="1" as="geometry">
            <mxPoint x="510" y="330" as="sourcePoint" />
            <mxPoint x="560" y="280" as="targetPoint" />
          </mxGeometry>
        </mxCell>
        <mxCell id="I0gpD1vLXrpBhUwmVyEY-31" value="" style="outlineConnect=0;dashed=0;verticalLabelPosition=bottom;verticalAlign=top;align=center;html=1;shape=mxgraph.aws3.route_table;fillColor=#F58536;gradientColor=none;aspect=fixed;" vertex="1" parent="I0gpD1vLXrpBhUwmVyEY-3">
          <mxGeometry x="690" y="120" width="30" height="27.6" as="geometry" />
        </mxCell>
        <mxCell id="I0gpD1vLXrpBhUwmVyEY-32" value="" style="outlineConnect=0;dashed=0;verticalLabelPosition=bottom;verticalAlign=top;align=center;html=1;shape=mxgraph.aws3.route_table;fillColor=#F58536;gradientColor=none;aspect=fixed;" vertex="1" parent="I0gpD1vLXrpBhUwmVyEY-3">
          <mxGeometry x="270" y="330" width="30" height="27.6" as="geometry" />
        </mxCell>
        <mxCell id="I0gpD1vLXrpBhUwmVyEY-33" value="" style="outlineConnect=0;dashed=0;verticalLabelPosition=bottom;verticalAlign=top;align=center;html=1;shape=mxgraph.aws3.route_table;fillColor=#F58536;gradientColor=none;aspect=fixed;" vertex="1" parent="I0gpD1vLXrpBhUwmVyEY-3">
          <mxGeometry x="690" y="330" width="30" height="27.6" as="geometry" />
        </mxCell>
        <mxCell id="I0gpD1vLXrpBhUwmVyEY-34" value="" style="outlineConnect=0;dashed=0;verticalLabelPosition=bottom;verticalAlign=top;align=center;html=1;shape=mxgraph.aws3.route_table;fillColor=#F58536;gradientColor=none;aspect=fixed;" vertex="1" parent="I0gpD1vLXrpBhUwmVyEY-3">
          <mxGeometry x="690" y="540" width="30" height="27.6" as="geometry" />
        </mxCell>
        <mxCell id="I0gpD1vLXrpBhUwmVyEY-35" value="" style="outlineConnect=0;dashed=0;verticalLabelPosition=bottom;verticalAlign=top;align=center;html=1;shape=mxgraph.aws3.route_table;fillColor=#F58536;gradientColor=none;aspect=fixed;" vertex="1" parent="I0gpD1vLXrpBhUwmVyEY-3">
          <mxGeometry x="270" y="540" width="30" height="27.6" as="geometry" />
        </mxCell>
        <mxCell id="I0gpD1vLXrpBhUwmVyEY-36" value="" style="sketch=0;points=[[0,0,0],[0.25,0,0],[0.5,0,0],[0.75,0,0],[1,0,0],[0,1,0],[0.25,1,0],[0.5,1,0],[0.75,1,0],[1,1,0],[0,0.25,0],[0,0.5,0],[0,0.75,0],[1,0.25,0],[1,0.5,0],[1,0.75,0]];outlineConnect=0;fontColor=#232F3E;gradientColor=#60A337;gradientDirection=north;fillColor=#277116;strokeColor=#ffffff;dashed=0;verticalLabelPosition=bottom;verticalAlign=top;align=center;html=1;fontSize=12;fontStyle=0;aspect=fixed;shape=mxgraph.aws4.resourceIcon;resIcon=mxgraph.aws4.s3;" vertex="1" parent="I0gpD1vLXrpBhUwmVyEY-1">
          <mxGeometry x="920" y="225" width="55" height="55" as="geometry" />
        </mxCell>
        <mxCell id="I0gpD1vLXrpBhUwmVyEY-37" value="" style="sketch=0;points=[[0,0,0],[0.25,0,0],[0.5,0,0],[0.75,0,0],[1,0,0],[0,1,0],[0.25,1,0],[0.5,1,0],[0.75,1,0],[1,1,0],[0,0.25,0],[0,0.5,0],[0,0.75,0],[1,0.25,0],[1,0.5,0],[1,0.75,0]];outlineConnect=0;fontColor=#232F3E;gradientColor=#F78E04;gradientDirection=north;fillColor=#D05C17;strokeColor=#ffffff;dashed=0;verticalLabelPosition=bottom;verticalAlign=top;align=center;html=1;fontSize=12;fontStyle=0;aspect=fixed;shape=mxgraph.aws4.resourceIcon;resIcon=mxgraph.aws4.ecr;" vertex="1" parent="I0gpD1vLXrpBhUwmVyEY-1">
          <mxGeometry x="920" y="310" width="55" height="55" as="geometry" />
        </mxCell>
        <mxCell id="I0gpD1vLXrpBhUwmVyEY-38" value="" style="outlineConnect=0;dashed=0;verticalLabelPosition=bottom;verticalAlign=top;align=center;html=1;shape=mxgraph.aws3.dynamo_db;fillColor=#2E73B8;gradientColor=none;aspect=fixed;" vertex="1" parent="I0gpD1vLXrpBhUwmVyEY-1">
          <mxGeometry x="920" y="390" width="55" height="61.88" as="geometry" />
        </mxCell>
      </root>
    </mxGraphModel>
  </diagram>
</mxfile>
